# xmcd
# 
# Track frame offsets:
#     150
#     12178
#     22309
#     34469
#     45999
#     57849
#     69085
#     77910
#     89564
#     99645
#     110886
#     122079
#     131458
#     142432
#     154812
#     164692
#     174929
#     187550
#     198222
#     208273
#     219611
#     229968
#     239649
#     253239
#     264804
# 
# Disc length: 3713
# 
# Revision: 0
# Processed by: cddbd v1.5.2PL0 Copyright (c) Steve Scherf et al.
# Submitted via: fre:ac v1.0.17
# 
DISCID=720e7f19
DTITLE=George Jones - 101 - White Lightning: The Best of George Jones [CDThree)
DYEAR=2014
DGENRE=Country
TTITLE0=She Thinks I Still Care
TTITLE1=I Walk The Line
TTITLE2=Oh Lonesome Me
TTITLE3=Your Cheating Heart
TTITLE4=Window Up Above
TTITLE5=Life To Go
TTITLE6=If I Don't Love You (Grits Ain't Groceries)
TTITLE7=Just One More
TTITLE8=It's Been So Long Darling
TTITLE9=Nothing Can Stop My Love
TTITLE10=Tall Tall Trees
TTITLE11=No No Never
TTITLE12=I Gotta Talk To Your Heart
TTITLE13=A Girl I Used To Know
TTITLE14=Too Much Water
TTITLE15=Don't Stop The Music
TTITLE16=You Never Thought
TTITLE17=No Money In This Deal
TTITLE18=All I Want To Do
TTITLE19=Gonna Come Get You
TTITLE20=Uh Uh No
TTITLE21=Did I Ever Tell You
TTITLE22=Wedding Bells
TTITLE23=They'll Never Take Her Love From Me
TTITLE24=Family Bible
EXTD=
EXTT0=
EXTT1=
EXTT2=
EXTT3=
EXTT4=
EXTT5=
EXTT6=
EXTT7=
EXTT8=
EXTT9=
EXTT10=
EXTT11=
EXTT12=
EXTT13=
EXTT14=
EXTT15=
EXTT16=
EXTT17=
EXTT18=
EXTT19=
EXTT20=
EXTT21=
EXTT22=
EXTT23=
EXTT24=
PLAYORDER=
